<svg width="1000" height="990" viewBox="0 0 1000 990" fill="none" xmlns="http://www.w3.org/2000/svg">
<g id="bighead 1" clip-path="url(#clip0_0_1)">
<g id="Group">
<g id="Group_2">
<g id="Group_3">
<path id="Vector" d="M225.35 498C408.77 575.95 596.49 577.06 781.29 498C798.82 490.5 798.72 358.13 781.29 364.19C600.82 427.02 409.96 427.69 225.35 364.19C203.39 356.6 205.53 489.53 225.35 498V498Z" fill="#592D3D" stroke="#592D3D" stroke-width="12" stroke-miterlimit="10"/>
</g>
<path id="Vector_2" d="M610 758.72C700.76 758.72 682 872.96 682.87 1000H610V758.72Z" fill="#FDD2B2"/>
<path id="Vector_3" d="M632.74 831.87L610 870L621.38 1000H653.14C653.91 819.73 632.74 831.87 632.74 831.87Z" fill="#F3AB98"/>
<path id="Vector_4" d="M233.25 500C233.25 352.68 352.68 233.25 500 233.25C647.32 233.25 766.75 352.68 766.75 500C766.827 580.394 730.57 656.517 668.1 707.12C662.627 711.573 656.98 715.803 651.16 719.81C591 758 515 758 446.39 751.89C439.73 750.89 433.09 749.63 426.5 748.18C400.17 742.38 374.68 733.43 351.13 720.38C345.31 716.793 339.667 712.92 334.2 708.76C328.705 704.576 323.432 700.11 318.4 695.38C313.64 690.96 309.043 686.367 304.61 681.6C258.667 632.299 233.161 567.39 233.25 500V500Z" fill="#FDD2B2"/>
<path id="Vector_5" d="M269.61 634.48C270.31 635.68 271 636.88 271.72 638.06C272.15 638.78 272.6 639.48 273.05 640.2C273.71 641.27 274.37 642.34 275.05 643.39C275.53 644.15 276.05 644.89 276.51 645.63C277.17 646.63 277.83 647.63 278.51 648.63C279.02 649.39 279.51 650.15 280.07 650.91C280.73 651.91 281.39 652.83 282.07 653.79C282.61 654.56 283.17 655.32 283.72 656.09C284.27 656.86 285.06 657.94 285.72 658.86C286.38 659.78 286.87 660.39 287.45 661.15C288.03 661.91 288.82 662.95 289.52 663.85C290.22 664.75 290.71 665.36 291.31 666.11C291.91 666.86 292.72 667.87 293.43 668.74C294.14 669.61 294.66 670.23 295.28 670.97C295.9 671.71 296.72 672.69 297.45 673.54C298.18 674.39 298.72 675.01 299.36 675.74L301.58 678.24C302.23 678.97 302.89 679.68 303.58 680.4C304.44 681.34 305.31 682.27 306.18 683.19L307.39 684.47C308.68 685.81 309.98 687.15 311.3 688.47L311.56 688.74C312.85 690.02 314.16 691.29 315.47 692.55L317.05 694.05C318 694.94 318.95 695.83 319.91 696.71L321.07 697.77C322.07 698.71 323.16 699.63 324.21 700.55C327.477 703.397 330.81 706.127 334.21 708.74C339.67 712.9 345.313 716.773 351.14 720.36C374.69 733.36 400.14 742.36 426.51 748.16C433.1 749.61 439.74 750.86 446.4 751.87C488.5 755.62 533.4 757.05 575.68 748.79C508.45 729 185.59 612.74 388.8 257.48C386.08 258.73 383.4 260.02 380.74 261.36L380.15 261.65C378.93 262.26 377.71 262.89 376.5 263.53L375.5 264.06C371.74 266.06 368.02 268.13 364.37 270.29L363.47 270.82C362.31 271.51 361.16 272.21 360.01 272.92L359.14 273.46C355.567 275.693 352.05 278.003 348.59 280.39L347.51 281.14C346.42 281.9 345.35 282.66 344.28 283.43L343.62 283.9C341.44 285.493 339.287 287.107 337.16 288.74L336.54 289.22C335.54 290 334.54 290.8 333.54 291.61L332.37 292.55C331.37 293.36 330.37 294.17 329.37 295C327.26 296.75 325.18 298.55 323.13 300.37L321.99 301.37L319.3 303.82L318 305C315.147 307.667 312.357 310.39 309.63 313.17L308.25 314.58C307.46 315.4 306.67 316.22 305.89 317.05C305.43 317.54 304.97 318.05 304.52 318.53C303.147 319.997 301.793 321.483 300.46 322.99C300.01 323.5 299.55 323.99 299.1 324.53C298.39 325.34 297.69 326.16 296.99 326.98L295.48 328.77C294.8 329.58 294.12 330.39 293.48 331.21C292.94 331.87 292.4 332.54 291.87 333.21C290.8 334.54 289.75 335.87 288.71 337.21C288.17 337.91 287.63 338.61 287.1 339.32C286.57 340.03 285.9 340.91 285.31 341.72C284.72 342.53 284.24 343.17 283.72 343.9C283.2 344.63 282.59 345.45 282.04 346.23C281.093 347.563 280.16 348.913 279.24 350.28C278.74 351.01 278.24 351.76 277.75 352.5C277.26 353.24 276.65 354.16 276.11 355L274.62 357.31L272.94 360.02C272.51 360.71 272.08 361.4 271.66 362.09C270.77 363.55 269.91 365.02 269.05 366.49L267.83 368.65C267.29 369.6 266.75 370.56 266.22 371.52C265.82 372.25 265.42 372.98 265.03 373.71C264.39 374.9 263.76 376.1 263.13 377.3L261.93 379.64C261.29 380.92 260.65 382.19 260.02 383.48C259.69 384.17 259.35 384.87 259.02 385.57C258.5 386.66 258.02 387.76 257.49 388.86C257.18 389.52 256.88 390.18 256.58 390.86C255.84 392.507 255.117 394.173 254.41 395.86C254.19 396.38 253.98 396.91 253.76 397.43C253.23 398.7 252.71 399.97 252.2 401.25C251.93 401.92 251.67 402.59 251.41 403.25C250.91 404.51 250.41 405.78 249.96 407.05C249.75 407.6 249.54 408.15 249.34 408.7C248.713 410.453 248.097 412.207 247.49 413.96L246.93 415.66C246.49 416.993 246.06 418.327 245.64 419.66L245.04 421.57C244.57 423.11 244.11 424.65 243.67 426.2C243.57 426.53 243.47 426.86 243.38 427.2C242.86 429.04 242.36 430.887 241.88 432.74C241.72 433.33 241.58 433.93 241.43 434.52C241.08 435.91 240.74 437.3 240.43 438.7L240.01 440.45C239.58 442.35 239.16 444.25 238.77 446.16L238.62 446.93C238.28 448.63 237.947 450.33 237.62 452.03C237.51 452.64 237.41 453.24 237.3 453.85C237.04 455.34 236.79 456.85 236.56 458.35C236.48 458.86 236.39 459.35 236.32 459.87C236.02 461.82 235.75 463.78 235.49 465.75L235.34 467.05C235.14 468.64 234.96 470.24 234.79 471.84C234.73 472.44 234.66 473.04 234.6 473.65C234.44 475.33 234.29 477.02 234.15 478.71C234.15 479.06 234.09 479.4 234.07 479.71C233.923 481.71 233.793 483.727 233.68 485.76C233.68 486.29 233.68 486.83 233.61 487.36C233.543 488.933 233.483 490.503 233.43 492.07C233.43 492.66 233.43 493.25 233.43 493.84C233.43 495.89 233.35 497.95 233.35 500.01C233.35 500.01 233.35 500.08 233.35 500.11C233.35 502.33 233.35 504.53 233.43 506.73C233.43 507.49 233.49 508.25 233.51 509.01C233.56 510.48 233.61 511.95 233.68 513.42C233.68 514.31 233.79 515.19 233.84 516.08C233.92 517.41 233.99 518.74 234.09 520.08C234.16 521.08 234.25 521.97 234.33 522.91C234.44 524.17 234.54 525.43 234.67 526.68C234.76 527.68 234.88 528.62 234.98 529.59C235.12 530.8 235.25 532.02 235.4 533.23C235.52 534.23 235.66 535.23 235.79 536.18C235.95 537.36 236.11 538.55 236.29 539.73C236.44 540.73 236.6 541.73 236.76 542.73C236.94 543.89 237.13 545.06 237.33 546.22C237.51 547.22 237.69 548.22 237.88 549.22C238.09 550.37 238.31 551.52 238.53 552.66C238.75 553.8 238.94 554.66 239.15 555.66C239.39 556.8 239.63 557.93 239.89 559.06C240.15 560.19 240.33 561.06 240.57 561.99C240.83 563.12 241.11 564.24 241.39 565.35C241.67 566.46 241.88 567.3 242.13 568.26C242.43 569.38 242.73 570.49 243.04 571.6C243.3 572.6 243.57 573.52 243.85 574.47C244.17 575.58 244.5 576.68 244.85 577.78C245.2 578.88 245.43 579.67 245.73 580.62C246.03 581.57 246.43 582.81 246.79 583.9C247.15 584.99 247.41 585.77 247.73 586.7C248.11 587.79 248.49 588.88 248.88 589.97C249.21 590.88 249.53 591.8 249.88 592.71L251.12 595.98C251.47 596.87 251.81 597.77 252.12 598.66C252.56 599.75 253.01 600.85 253.46 601.94C253.82 602.8 254.17 603.67 254.54 604.53C255.01 605.65 255.54 606.75 255.99 607.86C256.36 608.68 256.72 609.51 257.09 610.33C257.61 611.49 258.16 612.63 258.69 613.77L259.77 616.07C260.38 617.33 261.01 618.57 261.64 619.82C261.96 620.45 262.26 621.09 262.59 621.72C264.51 625.46 266.51 629.15 268.59 632.79C268.88 633.26 269.25 633.87 269.61 634.48V634.48Z" fill="#F3AB98"/>
<path id="Vector_6" d="M233.25 500C233.25 352.68 352.68 233.25 500 233.25C647.32 233.25 766.75 352.68 766.75 500C766.827 580.394 730.57 656.517 668.1 707.12C662.627 711.573 656.98 715.803 651.16 719.81C591 758 515 758 446.39 751.89C439.73 750.89 433.09 749.63 426.5 748.18C400.17 742.38 374.68 733.43 351.13 720.38C345.31 716.793 339.667 712.92 334.2 708.76C328.705 704.576 323.432 700.11 318.4 695.38C313.64 690.96 309.043 686.367 304.61 681.6C258.667 632.299 233.161 567.39 233.25 500V500Z" stroke="#592D3D" stroke-width="12" stroke-miterlimit="10"/>
<path id="Vector_7" d="M386.12 758.72C295.35 758.72 314.12 872.96 313.25 1000H386.12V758.72Z" fill="#FDD2B2"/>
<path id="Vector_8" d="M367.23 831.87L390 870L378.61 1000H346.88C346.07 819.73 367.23 831.87 367.23 831.87Z" fill="#F3AB98"/>
<path id="Vector_9" d="M619.47 1070H380.53C373.2 1069.99 367.26 1064.05 367.26 1056.72V772C367.26 764.67 373.2 758.725 380.53 758.72H613.76C626.85 758.72 632.76 766.38 632.76 778.6V1056.68C632.771 1060.21 631.375 1063.6 628.881 1066.1C626.387 1068.6 623.001 1070 619.47 1070Z" fill="#FDD2B2"/>
<path id="Vector_10" d="M629.05 766.62C628.053 765.394 627.21 764.051 626.54 762.62C624.139 760.738 621.282 759.527 618.26 759.11C616.771 758.879 615.267 758.766 613.76 758.77H380.53C373.219 758.775 367.288 764.689 367.26 772C396.26 782.42 450.55 788.24 500 788.24C563.06 788.24 604.38 778.89 629.05 766.62Z" fill="#F3AB98"/>
<path id="Vector_11" d="M610 758.72C700.76 758.72 682 872.96 682.87 1000H632.74" stroke="#592D3D" stroke-width="12" stroke-miterlimit="10" stroke-linecap="square"/>
<path id="Vector_12" d="M386.12 758.72C295.35 758.72 314.12 872.96 313.25 1000H363.32" stroke="#592D3D" stroke-width="12" stroke-miterlimit="10" stroke-linecap="square"/>
<path id="Vector_13" d="M380.53 758.82L613.76 758.72" stroke="#592D3D" stroke-width="12" stroke-miterlimit="10"/>
<path id="Vector_14" d="M380.53 1070H497.15C388 1070 396.24 838.82 367.26 838.82V1056.68C367.249 1060.21 368.642 1063.59 371.132 1066.09C373.621 1068.59 377.003 1070 380.53 1070Z" fill="#F3AB98"/>
<path id="Vector_15" d="M361.26 860.85C361.07 857.18 361.15 853.51 361.31 849.85C361.47 846.19 361.78 842.5 362.17 838.85C362.37 837.01 362.57 835.18 362.82 833.34C363.07 831.5 363.31 829.67 363.67 827.83C364.379 824.022 365.586 820.323 367.26 816.83C368.934 820.323 370.141 824.022 370.85 827.83C371.21 829.67 371.47 831.5 371.7 833.34C371.93 835.18 372.15 837.01 372.35 838.85C372.73 842.52 373.03 846.19 373.2 849.85C373.37 853.51 373.45 857.19 373.26 860.85H361.26Z" fill="#592D3D"/>
<path id="Vector_16" d="M632.74 870V878C633 912 633 947 632.74 980.75C632.74 983.62 632.74 986.47 632.74 989.28V1056.69C632.748 1060.22 631.354 1063.6 628.865 1066.1C626.375 1068.59 622.996 1070 619.47 1070H380.53C373.2 1069.99 367.26 1064.05 367.26 1056.72V998.52C367.26 996.01 367.26 993.45 367.26 990.87C367.01 956 367.01 921 367.26 885.57V860.85" stroke="#592D3D" stroke-width="12" stroke-miterlimit="10"/>
<path id="Vector_17" d="M626.74 870C626.55 865.83 626.64 861.65 626.8 857.47C626.96 853.29 627.27 849.12 627.65 844.94C627.85 842.85 628.06 840.76 628.3 838.67C628.54 836.58 628.79 834.5 629.15 832.41C629.847 828.106 631.052 823.9 632.74 819.88C634.428 823.9 635.633 828.106 636.33 832.41C636.69 834.5 636.95 836.59 637.18 838.67C637.41 840.75 637.63 842.85 637.83 844.94C638.21 849.12 638.52 853.29 638.68 857.47C638.84 861.65 638.93 865.83 638.74 870H626.74Z" fill="#592D3D"/>
<path id="Vector_18" d="M570.68 842.45C570.9 833 582.9 829 588.9 835C593.001 839.186 592.931 845.904 588.745 850.005C584.559 854.106 577.841 854.036 573.74 849.85C571.773 847.891 570.671 845.226 570.68 842.45V842.45Z" fill="#592D3D"/>
<path id="Vector_19" d="M408.11 842.15C407.9 834 416.9 830 422.9 833C430.9 836 430.9 847 422.9 852C418.9 854 414.9 852 411.15 849.52C409.197 847.565 408.103 844.913 408.11 842.15V842.15Z" fill="#592D3D"/>
<path id="Vector_20" d="M500 831.77C500.715 833.655 501.219 835.614 501.5 837.61C501.798 839.543 501.961 841.494 501.99 843.45L502.29 855.14C502.38 859.03 502.5 862.93 502.54 866.83L502.71 878.5C502.94 894.07 502.93 909.66 502.99 925.24C503.05 940.82 503.17 956.4 502.99 971.98C502.9 979.77 502.69 987.56 502.46 995.35C502.36 999.24 502.17 1003.14 501.79 1007.03C501.45 1010.96 500.859 1014.87 500.02 1018.72C499.181 1014.87 498.59 1010.96 498.25 1007.03C497.87 1003.14 497.68 999.24 497.58 995.35C497.35 987.56 497.14 979.77 497.05 971.98C496.85 956.4 497.05 940.82 497.05 925.24C497.05 909.66 497.05 894.09 497.23 878.51L497.4 866.81L497.73 855.13L498.06 843.45C498.097 841.494 498.264 839.543 498.56 837.61C498.822 835.616 499.305 833.657 500 831.77V831.77Z" fill="#F3AB98"/>
<path id="Vector_21" d="M425.22 883C426.703 882.295 428.274 881.791 429.89 881.5C431.434 881.21 432.999 881.043 434.57 881L443.92 880.67L462.62 880.26C475.08 880.07 487.53 880.02 500 879.99C512.47 879.96 524.93 879.83 537.39 879.99C543.62 880.08 549.85 880.29 556.09 880.52C559.2 880.63 562.32 880.82 565.43 881.19C568.588 881.54 571.714 882.135 574.78 882.97C571.716 883.81 568.589 884.402 565.43 884.74C562.32 885.12 559.2 885.31 556.09 885.41C549.85 885.64 543.62 885.84 537.39 885.93C524.93 886.12 512.47 885.93 500 885.93C487.53 885.93 475.07 885.93 462.6 885.78C456.37 885.72 450.14 885.52 443.92 885.28L434.57 884.94C433.003 884.898 431.441 884.731 429.9 884.44C428.283 884.17 426.709 883.686 425.22 883V883Z" fill="#F3AB98"/>
<path id="Vector_22" d="M442.41 914.38C443.591 913.817 444.853 913.442 446.15 913.27C447.349 913.101 448.561 913.05 449.77 913.12C452.16 913.22 454.55 913.28 456.94 913.33C461.72 913.44 466.5 913.48 471.28 913.5C480.91 913.5 490.37 913.58 500.04 913.29C509.71 913 519.3 912.86 528.92 912.9C533.73 912.9 538.54 913.03 543.34 913.14C545.756 913.172 548.17 913.329 550.57 913.61C553.037 913.882 555.472 914.395 557.84 915.14C555.528 916.048 553.128 916.718 550.68 917.14C548.296 917.569 545.888 917.857 543.47 918C538.65 918.35 533.83 918.65 529.02 918.82C519.38 919.18 509.75 919.14 500.14 919.27C495.33 919.27 490.53 919.49 485.66 919.37C480.79 919.25 475.97 919.24 471.14 919.06C466.31 918.88 461.46 918.48 456.64 917.98C454.22 917.71 451.82 917.41 449.41 917.08C448.193 916.931 446.996 916.649 445.84 916.24C444.599 915.82 443.439 915.191 442.41 914.38V914.38Z" fill="#F3AB98"/>
<path id="Vector_23" d="M438.93 949.87C440.116 949.172 441.406 948.666 442.75 948.37C444.004 948.079 445.283 947.914 446.57 947.88L454.2 947.56C459.29 947.38 464.39 947.23 469.48 947.15C479.66 947 489.84 947 500 947C510.16 947 520.36 946.83 530.54 947C535.63 947.09 540.72 947.3 545.81 947.53C548.363 947.616 550.91 947.836 553.44 948.19C556.045 948.547 558.61 949.154 561.1 950C558.619 950.831 556.064 951.423 553.47 951.77C550.937 952.132 548.387 952.356 545.83 952.44C540.74 952.67 535.65 952.88 530.56 952.97C520.38 953.17 510.19 953.03 500.01 952.97C489.83 952.91 479.65 952.91 469.47 952.72C464.38 952.62 459.28 952.44 454.19 952.23L446.56 951.86C445.273 951.821 443.993 951.653 442.74 951.36C441.399 951.07 440.112 950.567 438.93 949.87V949.87Z" fill="#F3AB98"/>
<path id="Vector_24" d="M677.8 906.35C678.01 869.24 676.59 836.28 670.07 810.96C660 785.6 641.89 770.48 610 770.48L632.79 905C632.79 905 655.31 915.24 677.8 906.35Z" fill="#F3AB98"/>
<path id="Vector_25" d="M686.41 895.79C685.269 896.732 684.028 897.547 682.71 898.22" stroke="#592D3D" stroke-width="12" stroke-miterlimit="10" stroke-linecap="square"/>
<path id="Vector_26" d="M326.11 809.88C319.28 835.45 318.11 869.01 318.37 906.88C338.27 915.42 368.79 904.73 368.79 904.73L386.12 772.49C355.25 772.46 336.85 786.36 326.11 809.88Z" fill="#F3AB98"/>
<path id="Vector_27" d="M613.76 758.72H559.55V758.82C559.551 763.322 559.069 767.811 558.11 772.21C557.644 774.35 557.063 776.463 556.37 778.54C554.158 784.744 550.761 790.46 546.37 795.37C544.968 796.943 543.465 798.423 541.87 799.8C516.7 818 476.7 819 452.39 799.22C449.771 796.932 447.389 794.386 445.28 791.62C440.902 785.87 437.799 779.253 436.18 772.21C435.706 770.034 435.349 767.834 435.11 765.62C434.86 763.362 434.737 761.092 434.74 758.82V758.72H380.53C373.2 758.725 367.26 764.67 367.26 772V1056.68C367.249 1060.21 368.642 1063.59 371.132 1066.09C373.621 1068.59 377.003 1070 380.53 1070H619.47C626.8 1069.99 632.74 1064.05 632.74 1056.72V778.6C632.74 766.38 626.85 758.72 613.76 758.72V758.72Z" fill="#633749"/>
<path id="Vector_28" d="M610 758.72C673.54 758.72 683.4 814.72 683.9 891.89C665.3 903.51 634.99 893.2 634.99 893.2L610 758.72Z" fill="#633749"/>
<path id="Vector_29" d="M632.74 831.87L610 870L621.38 1000H632.99V894.35L650.27 897.24C644.6 825.07 632.74 831.87 632.74 831.87Z" fill="#5E3244"/>
<path id="Vector_30" d="M386.12 758.72C324.34 758.72 310.29 812.52 309.27 886.38C328.27 906.24 367.27 890.96 367.27 890.96L386.12 758.72Z" fill="#633749"/>
<path id="Vector_31" d="M367.23 831.87V891L349.92 895.31C355.59 825.19 367.23 831.87 367.23 831.87V831.87Z" fill="#5E3244"/>
<path id="Vector_32" d="M610 758.72C677.41 758.72 688.45 815.01 688.9 892.5C662.7 904.93 634.99 893.2 634.99 893.2" stroke="#592D3D" stroke-width="12" stroke-miterlimit="10" stroke-linecap="square"/>
<path id="Vector_33" d="M386.12 758.72C319.33 758.72 306.04 813.42 305.36 889.44C326 904.22 367.22 891 367.22 891" stroke="#592D3D" stroke-width="12" stroke-miterlimit="10" stroke-linecap="square"/>
<path id="Vector_34" d="M380.53 1070H497.15C388 1070 396.24 838.82 367.26 838.82V1056.68C367.249 1060.21 368.642 1063.59 371.132 1066.09C373.621 1068.59 377.003 1070 380.53 1070Z" fill="#5E3244"/>
<path id="Vector_35" d="M361.26 860.85C361.07 857.18 361.15 853.51 361.31 849.85C361.47 846.19 361.78 842.5 362.17 838.85C362.37 837.01 362.57 835.18 362.82 833.34C363.07 831.5 363.31 829.67 363.67 827.83C364.379 824.022 365.586 820.323 367.26 816.83C368.935 820.322 370.139 824.021 370.84 827.83C371.21 829.67 371.47 831.5 371.7 833.34C371.93 835.18 372.15 837.01 372.35 838.85C372.73 842.52 373.03 846.19 373.2 849.85C373.37 853.51 373.45 857.19 373.26 860.85H361.26Z" fill="#592D3D"/>
<path id="Vector_36" d="M632.74 870V878C633 912 633 947 632.74 980.75C632.74 983.62 632.74 986.47 632.74 989.28V1056.69C632.748 1060.22 631.354 1063.6 628.865 1066.1C626.375 1068.59 622.996 1070 619.47 1070H380.53C373.2 1069.99 367.26 1064.05 367.26 1056.72V998.52C367.26 996.01 367.26 993.45 367.26 990.87C367.01 956 367.01 921 367.26 885.57V860.85" stroke="#592D3D" stroke-width="12" stroke-miterlimit="10"/>
<path id="Vector_37" d="M626.74 870C626.55 865.83 626.64 861.65 626.8 857.47C626.96 853.29 627.27 849.12 627.65 844.94C627.85 842.85 628.06 840.76 628.3 838.67C628.54 836.58 628.79 834.5 629.16 832.41C629.848 828.105 631.05 823.899 632.74 819.88C634.428 823.9 635.633 828.106 636.33 832.41C636.69 834.5 636.95 836.59 637.18 838.67C637.41 840.75 637.63 842.85 637.83 844.94C638.21 849.12 638.52 853.29 638.68 857.47C638.84 861.65 638.93 865.83 638.74 870H626.74Z" fill="#592D3D"/>
<path id="Vector_38" d="M380.53 758.82L613.76 758.72" stroke="#592D3D" stroke-width="12" stroke-miterlimit="10"/>
<path id="Vector_39" d="M559.55 758.82C559.551 763.322 559.069 767.811 558.11 772.21C557.644 774.35 557.063 776.463 556.37 778.54C554.158 784.744 550.761 790.46 546.37 795.37C544.968 796.943 543.465 798.423 541.87 799.8C516.7 818 476.7 819 452.39 799.22C449.771 796.932 447.389 794.386 445.28 791.62C440.902 785.87 437.799 779.253 436.18 772.21C435.706 770.034 435.349 767.834 435.11 765.62C434.86 763.362 434.737 761.092 434.74 758.82" stroke="#592D3D" stroke-width="12" stroke-miterlimit="10"/>
<path id="Vector_40" d="M503.4 828.39C497.351 829.607 491.161 829.977 485.01 829.49C478.803 829.054 472.682 827.789 466.81 825.73C460.903 823.705 455.339 820.791 450.31 817.09L448.45 815.68C447.84 815.2 447.25 814.68 446.66 814.16C445.472 813.149 444.359 812.052 443.33 810.88C441.277 808.573 439.474 806.056 437.95 803.37C440.09 805.515 442.339 807.548 444.69 809.46C445.27 809.94 445.86 810.41 446.44 810.86C447.02 811.31 447.67 811.68 448.28 812.1C448.89 812.52 449.5 812.94 450.13 813.33L452.04 814.49C457.142 817.512 462.536 820.012 468.14 821.95C473.755 823.914 479.526 825.402 485.39 826.4C491.355 827.376 497.366 828.04 503.4 828.39V828.39Z" fill="#592D3D"/>
<path id="Vector_41" d="M307.83 892.5C308.967 893.537 310.199 894.464 311.51 895.27" stroke="#592D3D" stroke-width="12" stroke-miterlimit="10" stroke-linecap="square"/>
<path id="Vector_42" d="M674.7 882.69C672.619 883.935 670.328 884.789 667.94 885.21C665.569 885.676 663.156 885.894 660.74 885.86C658.328 885.813 655.925 885.549 653.56 885.07C652.38 884.86 651.23 884.51 650.07 884.2C648.91 883.89 647.8 883.43 646.7 882.96C647.91 882.96 649.08 883.14 650.26 883.24L653.78 883.53C654.95 883.53 656.11 883.73 657.28 883.74C658.45 883.75 659.6 883.85 660.76 883.86C663.093 883.9 665.427 883.837 667.76 883.67C670.094 883.508 672.413 883.181 674.7 882.69V882.69Z" fill="#592D3D"/>
<path id="Vector_43" d="M566.88 917.83C566.88 908.97 555.78 900.57 538.77 895.36C542.7 878.02 540.95 864.23 533.26 859.81C531.467 858.62 529.324 858.071 527.18 858.25C519.18 858.38 509.87 863.6 499.95 872.87C490 863.65 479 858.2 472.71 858.36C469.55 858.45 468.34 858.88 466.55 859.92C458.88 864.33 457.17 878.1 461.12 895.39C444.12 900.62 433.12 909 433.12 917.83C433.12 926.66 444.22 935.09 461.23 940.3C457.3 957.64 459.05 971.43 466.74 975.85C468.609 976.902 470.726 977.43 472.87 977.38C480.37 977.38 490.18 972.03 500.11 962.76C510.03 971.98 519.85 977.27 527.35 977.27C529.503 977.317 531.629 976.789 533.51 975.74C541.17 971.32 542.89 957.55 538.93 940.27C555.84 935.06 566.88 926.66 566.88 917.83V917.83ZM527.16 864.34C528.237 864.309 529.304 864.553 530.26 865.05C533.97 867.18 535.58 875.28 534.33 885.69C534.03 888.25 533.54 890.95 532.94 893.69C527.239 892.309 521.453 891.307 515.62 890.69C512.148 885.899 508.359 881.346 504.28 877.06C513.16 868.87 521.49 864.35 527.16 864.34V864.34ZM475.84 931.79C477.12 933.97 478.43 936.097 479.77 938.17C475.9 937.6 472.16 936.89 468.59 936.02C469.59 932.5 470.85 928.87 472.27 925.25C473.39 927.43 474.56 929.61 475.84 931.79ZM468.51 899.64C472.08 898.8 475.84 898.06 479.74 897.49C478.41 899.59 477.07 901.74 475.82 903.95C474.57 906.16 473.39 908.31 472.27 910.49C470.836 906.938 469.582 903.317 468.51 899.64ZM475.46 917.91C477.15 914.26 479.06 910.6 481.11 907.03C483.16 903.46 485.41 899.86 487.68 896.62C491.74 896.26 495.86 896.07 500 896.07C504.14 896.07 508.23 896.26 512.27 896.59C514.53 899.83 516.74 903.3 518.87 906.95C521 910.6 522.87 914.15 524.54 917.8C522.82 921.46 520.94 925.11 518.89 928.68C516.84 932.25 514.59 935.85 512.32 939.1C508.26 939.45 504.14 939.64 500 939.64C495.86 939.64 491.77 939.45 487.73 939.12C485.47 935.88 483.26 932.42 481.13 928.76C479 925.1 477.18 921.56 475.46 917.91V917.91ZM524.16 931.71C525.41 929.53 526.58 927.32 527.7 925.14C529.134 928.695 530.389 932.319 531.46 936C527.89 936.87 524.13 937.61 520.23 938.18C521.57 936.07 522.9 933.92 524.16 931.71V931.71ZM524.16 903.87C522.91 901.69 521.57 899.56 520.23 897.49C524.11 898.057 527.837 898.773 531.41 899.64C530.41 903.16 529.15 906.79 527.73 910.41C526.58 908.23 525.41 906.05 524.13 903.87H524.16ZM507.5 890.15C505.04 890.05 502.5 889.96 500 889.96C497.5 889.96 494.9 890.02 492.42 890.15C494.76 887.109 497.264 884.198 499.92 881.43C502.592 884.207 505.122 887.117 507.5 890.15ZM469.57 865.15C470.534 864.635 471.619 864.39 472.71 864.44C478.35 864.44 486.71 868.94 495.61 877.15C491.551 881.422 487.789 885.966 484.35 890.75C478.508 891.354 472.715 892.357 467.01 893.75C466.38 891.03 465.92 888.38 465.59 885.85C464.31 875.43 465.89 867.33 469.57 865.18V865.15ZM462.7 934.38C460 933.53 457.44 932.6 455.07 931.6C445.41 927.48 439.17 922.08 439.17 917.8C439.17 913.52 445.41 908.09 455.07 904C457.41 903 459.97 902.09 462.62 901.25C464.286 906.915 466.334 912.461 468.75 917.85C466.363 923.227 464.342 928.76 462.7 934.41V934.38ZM472.82 971.29C471.749 971.307 470.69 971.056 469.74 970.56C466.03 968.43 464.42 960.33 465.67 949.92C465.97 947.35 466.46 944.66 467.06 941.92C472.76 943.306 478.546 944.308 484.38 944.92C487.85 949.716 491.638 954.273 495.72 958.56C486.83 966.8 478.49 971.32 472.82 971.32V971.29ZM500.05 954.2C497.378 951.419 494.848 948.506 492.47 945.47C494.93 945.58 497.47 945.66 499.97 945.66C502.47 945.66 505.07 945.61 507.55 945.47C505.211 948.524 502.707 951.448 500.05 954.23V954.2ZM530.43 970.45C529.466 970.964 528.381 971.21 527.29 971.16C521.65 971.16 513.29 966.66 504.39 958.45C508.449 954.178 512.211 949.634 515.65 944.85C521.492 944.246 527.285 943.243 532.99 941.85C533.604 944.466 534.078 947.113 534.41 949.78C535.69 960.23 534.11 968.32 530.43 970.48V970.45ZM544.91 931.6C542.56 932.6 540 933.5 537.35 934.35C535.682 928.682 533.634 923.133 531.22 917.74C533.593 912.376 535.598 906.857 537.22 901.22C539.92 902.07 542.48 902.99 544.88 904C554.54 908.12 560.78 913.52 560.78 917.8C560.78 922.08 554.56 927.54 544.91 931.63V931.6Z" fill="black" stroke="white" stroke-width="16"/>
<path id="Vector_44" d="M499.97 930.29C506.851 930.29 512.43 924.711 512.43 917.83C512.43 910.948 506.851 905.37 499.97 905.37C493.089 905.37 487.51 910.948 487.51 917.83C487.51 924.711 493.089 930.29 499.97 930.29Z" fill="black" stroke="white" stroke-width="24"/>
<path id="Vector_45" d="M566.88 917.83C566.88 908.97 555.78 900.57 538.77 895.36C542.7 878.02 540.95 864.23 533.26 859.81C531.467 858.62 529.324 858.071 527.18 858.25C519.18 858.38 509.87 863.6 499.95 872.87C490 863.65 479 858.2 472.71 858.36C469.55 858.45 468.34 858.88 466.55 859.92C458.88 864.33 457.17 878.1 461.12 895.39C444.12 900.62 433.12 909 433.12 917.83C433.12 926.66 444.22 935.09 461.23 940.3C457.3 957.64 459.05 971.43 466.74 975.85C468.609 976.902 470.726 977.43 472.87 977.38C480.37 977.38 490.18 972.03 500.11 962.76C510.03 971.98 519.85 977.27 527.35 977.27C529.503 977.317 531.629 976.789 533.51 975.74C541.17 971.32 542.89 957.55 538.93 940.27C555.84 935.06 566.88 926.66 566.88 917.83V917.83ZM527.16 864.34C528.237 864.309 529.304 864.553 530.26 865.05C533.97 867.18 535.58 875.28 534.33 885.69C534.03 888.25 533.54 890.95 532.94 893.69C527.239 892.309 521.453 891.307 515.62 890.69C512.148 885.899 508.359 881.346 504.28 877.06C513.16 868.87 521.49 864.35 527.16 864.34V864.34ZM475.84 931.79C477.12 933.97 478.43 936.097 479.77 938.17C475.9 937.6 472.16 936.89 468.59 936.02C469.59 932.5 470.85 928.87 472.27 925.25C473.39 927.43 474.56 929.61 475.84 931.79ZM468.51 899.64C472.08 898.8 475.84 898.06 479.74 897.49C478.41 899.59 477.07 901.74 475.82 903.95C474.57 906.16 473.39 908.31 472.27 910.49C470.836 906.938 469.582 903.317 468.51 899.64ZM475.46 917.91C477.15 914.26 479.06 910.6 481.11 907.03C483.16 903.46 485.41 899.86 487.68 896.62C491.74 896.26 495.86 896.07 500 896.07C504.14 896.07 508.23 896.26 512.27 896.59C514.53 899.83 516.74 903.3 518.87 906.95C521 910.6 522.87 914.15 524.54 917.8C522.82 921.46 520.94 925.11 518.89 928.68C516.84 932.25 514.59 935.85 512.32 939.1C508.26 939.45 504.14 939.64 500 939.64C495.86 939.64 491.77 939.45 487.73 939.12C485.47 935.88 483.26 932.42 481.13 928.76C479 925.1 477.18 921.56 475.46 917.91V917.91ZM524.16 931.71C525.41 929.53 526.58 927.32 527.7 925.14C529.134 928.695 530.389 932.319 531.46 936C527.89 936.87 524.13 937.61 520.23 938.18C521.57 936.07 522.9 933.92 524.16 931.71V931.71ZM524.16 903.87C522.91 901.69 521.57 899.56 520.23 897.49C524.11 898.057 527.837 898.773 531.41 899.64C530.41 903.16 529.15 906.79 527.73 910.41C526.58 908.23 525.41 906.05 524.13 903.87H524.16ZM507.5 890.15C505.04 890.05 502.5 889.96 500 889.96C497.5 889.96 494.9 890.02 492.42 890.15C494.76 887.109 497.264 884.198 499.92 881.43C502.592 884.207 505.122 887.117 507.5 890.15ZM469.57 865.15C470.534 864.635 471.619 864.39 472.71 864.44C478.35 864.44 486.71 868.94 495.61 877.15C491.551 881.422 487.789 885.966 484.35 890.75C478.508 891.354 472.715 892.357 467.01 893.75C466.38 891.03 465.92 888.38 465.59 885.85C464.31 875.43 465.89 867.33 469.57 865.18V865.15ZM462.7 934.38C460 933.53 457.44 932.6 455.07 931.6C445.41 927.48 439.17 922.08 439.17 917.8C439.17 913.52 445.41 908.09 455.07 904C457.41 903 459.97 902.09 462.62 901.25C464.286 906.915 466.334 912.461 468.75 917.85C466.363 923.227 464.342 928.76 462.7 934.41V934.38ZM472.82 971.29C471.749 971.307 470.69 971.056 469.74 970.56C466.03 968.43 464.42 960.33 465.67 949.92C465.97 947.35 466.46 944.66 467.06 941.92C472.76 943.306 478.546 944.308 484.38 944.92C487.85 949.716 491.638 954.273 495.72 958.56C486.83 966.8 478.49 971.32 472.82 971.32V971.29ZM500.05 954.2C497.378 951.419 494.848 948.506 492.47 945.47C494.93 945.58 497.47 945.66 499.97 945.66C502.47 945.66 505.07 945.61 507.55 945.47C505.211 948.524 502.707 951.448 500.05 954.23V954.2ZM530.43 970.45C529.466 970.964 528.381 971.21 527.29 971.16C521.65 971.16 513.29 966.66 504.39 958.45C508.449 954.178 512.211 949.634 515.65 944.85C521.492 944.246 527.285 943.243 532.99 941.85C533.604 944.466 534.078 947.113 534.41 949.78C535.69 960.23 534.11 968.32 530.43 970.48V970.45ZM544.91 931.6C542.56 932.6 540 933.5 537.35 934.35C535.682 928.682 533.634 923.133 531.22 917.74C533.593 912.376 535.598 906.857 537.22 901.22C539.92 902.07 542.48 902.99 544.88 904C554.54 908.12 560.78 913.52 560.78 917.8C560.78 922.08 554.56 927.54 544.91 931.63V931.6Z" fill="#61DAFB"/>
<path id="Vector_46" d="M499.97 930.29C506.851 930.29 512.43 924.711 512.43 917.83C512.43 910.948 506.851 905.37 499.97 905.37C493.089 905.37 487.51 910.948 487.51 917.83C487.51 924.711 493.089 930.29 499.97 930.29Z" fill="#61DAFB"/>
<path id="Vector_47" d="M271.4 568.53C270.4 540.17 289.4 516.17 314.68 504.97C317.335 503.883 320.061 502.981 322.84 502.27C336.855 498.806 351.598 499.759 365.05 505C368.119 506.18 371.102 507.57 373.98 509.16C403.51 525.05 416.77 562.41 405.34 592.62C404.182 595.666 402.784 598.615 401.16 601.44C397.172 609.748 391.149 616.913 383.65 622.27C381.148 624.111 378.526 625.781 375.8 627.27C348.42 640.27 311.42 636.27 289.35 615.87C287.14 613.527 285.098 611.031 283.24 608.4C281.117 605.397 279.254 602.219 277.67 598.9C274.317 592.095 272.388 584.677 272 577.1C271.638 574.257 271.438 571.396 271.4 568.53V568.53Z" fill="#F3AB98"/>
<path id="Vector_48" d="M269.77 550.18C268.77 521.82 287.77 497.82 313.05 486.62C315.701 485.533 318.424 484.631 321.2 483.92C335.213 480.438 349.96 481.374 363.42 486.6C366.485 487.78 369.466 489.17 372.34 490.76C401.87 506.65 415.13 544.02 403.7 574.22C402.55 577.269 401.152 580.219 399.52 583.04C398.138 585.749 396.564 588.356 394.81 590.84C393.082 593.302 391.184 595.641 389.13 597.84C386.91 600.037 384.53 602.066 382.01 603.91C379.51 605.753 376.887 607.424 374.16 608.91C346.78 621.91 309.78 617.91 287.72 597.52C285.509 595.174 283.468 592.674 281.61 590.04C279.484 587.037 277.618 583.859 276.03 580.54C272.667 573.761 270.724 566.366 270.32 558.81C269.962 555.947 269.779 553.065 269.77 550.18V550.18Z" fill="white" stroke="#592D3D" stroke-width="12" stroke-miterlimit="10"/>
<path id="Vector_49" d="M583.89 560.47C584.32 545.34 590.56 530.38 598.99 519.14C601.143 516.119 603.523 513.268 606.11 510.61C629.869 485.843 668.117 482.047 696.28 501.66C698.552 503.245 700.732 504.958 702.81 506.79C729.81 528.24 732.93 569.93 718.13 600.02C716.692 602.411 715.095 604.703 713.35 606.88C711.036 609.781 708.502 612.499 705.77 615.01C685.5 632.84 653.96 637.14 628.36 627.43C624.713 626.054 621.184 624.382 617.81 622.43C599.91 611.65 587.44 591.34 584.38 570.2C583.966 566.974 583.802 563.721 583.89 560.47V560.47Z" fill="#F3AB98"/>
<path id="Vector_50" d="M589.38 549C589.8 534.85 595.8 520.85 603.9 510.34C605.984 507.506 608.277 504.832 610.76 502.34C633.964 479.16 670.336 475.664 697.53 494C699.712 495.477 701.809 497.076 703.81 498.79C729.81 518.86 732.81 557.86 718.55 586.01C717.168 588.255 715.631 590.4 713.95 592.43C711.717 595.146 709.28 597.686 706.66 600.03C687.15 616.71 656.8 620.74 632.17 611.65C628.656 610.346 625.255 608.758 622 606.9C604.78 596.82 592.78 577.82 589.83 558.05C589.437 555.05 589.287 552.024 589.38 549V549Z" fill="white" stroke="#592D3D" stroke-width="12" stroke-miterlimit="10"/>
<g id="Eye" >
<path id="Left" d="M338.51 563.03C345.27 563.03 350.75 557.55 350.75 550.79C350.75 544.03 345.27 538.55 338.51 538.55C331.75 538.55 326.27 544.03 326.27 550.79C326.27 557.55 331.75 563.03 338.51 563.03Z" fill="#592D3D"/>
<path id="Right" d="M659.21 563.03C665.97 563.03 671.45 557.55 671.45 550.79C671.45 544.03 665.97 538.55 659.21 538.55C652.45 538.55 646.97 544.03 646.97 550.79C646.97 557.55 652.45 563.03 659.21 563.03Z" fill="#592D3D"/>
</g>
<path id="Vector_51" d="M446.66 606.02H542.53" stroke="#592D3D" stroke-width="12" stroke-miterlimit="10" stroke-linecap="round"/>
<path id="Vector_52" d="M558.73 399.34C545.87 423.34 498.73 436.78 494.9 430.76C490.61 424.03 532.75 375.44 508.8 324.62" fill="#F3AB98"/>
<path id="Vector_53" d="M784 342.85C778.9 337.75 752.94 344.68 726.81 342.62C674.914 272.14 593.14 229.867 505.63 228.28C503.19 207.8 504.88 190.6 503.02 188.18C500.53 184.96 487.53 200.86 484.15 219.18C472.24 204.18 452.01 196.18 451.43 200.38C451.05 203.06 458.87 214.47 466.24 230.28C354.64 243.75 263.16 322.54 231.16 427.28C217.3 439.2 204.3 447.62 204.16 452.97C203.89 462.89 243.47 462.33 260.74 460.79V460.73C321.39 458.73 439.74 446.95 497.16 387.84C491.64 406.93 481.47 421 483.43 424C486.43 428.67 521.75 418.81 533.5 400.76C581.5 420.35 672.99 443.92 752.5 384.6L752.28 384.17C766.77 372.06 790.35 349.25 784 342.85V342.85Z" fill="#592D3D"/>
<path id="Vector_54" d="M726.85 348.62C721.45 348.86 716.19 348.73 710.85 348.48C705.51 348.23 700.26 347.81 694.98 347.22C692.34 346.93 689.7 346.62 687.07 346.22C684.44 345.82 681.8 345.5 679.18 344.99C673.841 344.03 668.619 342.509 663.6 340.45C668.846 339.107 674.2 338.23 679.6 337.83C682.23 337.61 684.86 337.46 687.49 337.35L695.37 337.01C700.62 336.79 705.86 336.67 711.09 336.56C716.32 336.45 721.57 336.44 726.71 336.56L726.85 348.62Z" fill="#592D3D"/>
<path id="Vector_55" d="M236.6 430C236.6 430 236.6 430.24 236.6 430.39L236.48 430.92L236.2 432.03C235.99 432.78 235.77 433.55 235.54 434.32C235.07 435.87 234.54 437.46 234 439.07C233.46 440.68 232.94 442.35 232.23 444.07C231.833 444.968 231.371 445.837 230.85 446.67C230.251 447.658 229.558 448.586 228.78 449.44C227.094 447.964 225.813 446.081 225.06 443.97C224.717 443.029 224.463 442.058 224.3 441.07C224.09 440.07 223.99 439.07 223.87 438.12C223.669 436.125 223.669 434.115 223.87 432.12C223.968 431.111 224.128 430.109 224.35 429.12C224.47 428.62 224.6 428.12 224.76 427.61C224.837 427.349 224.927 427.092 225.03 426.84C225.13 426.56 225.21 426.36 225.39 425.94L236.6 430Z" fill="#592D3D"/>
<path id="Vector_56" d="M260.74 460.82V460.76C277.74 460.2 299.37 458.86 322.88 455.92C325.51 400 344.88 334.34 388.8 257.48L382 254.23C309.459 287.934 254.633 350.844 231.16 427.31C217.3 439.23 204.3 447.65 204.16 453C203.89 462.92 243.47 462.36 260.74 460.82V460.82Z" fill="#592D3D"/>
<path id="Vector_57" d="M784 342.85C778.9 337.75 752.94 344.68 726.81 342.62C674.914 272.14 593.14 229.867 505.63 228.28C503.19 207.8 504.88 190.6 503.02 188.18C500.53 184.96 487.53 200.86 484.15 219.18C472.24 204.18 452.01 196.18 451.43 200.38C451.05 203.06 458.87 214.47 466.24 230.28C354.64 243.75 263.16 322.54 231.16 427.28C217.3 439.2 204.3 447.62 204.16 452.97C203.89 462.89 243.47 462.33 260.74 460.79V460.73C321.39 458.73 439.74 446.95 497.16 387.84C491.64 406.93 481.47 421 483.43 424C486.43 428.67 521.75 418.81 533.5 400.76C581.5 420.35 672.99 443.92 752.5 384.6L752.28 384.17C766.77 372.06 790.35 349.25 784 342.85V342.85Z" stroke="#592D3D" stroke-width="12" stroke-miterlimit="10"/>
<path id="Vector_58" d="M505.93 244.31C491.686 245.13 477.502 246.78 463.45 249.25C459.97 249.92 456.5 250.66 453.01 251.3C449.52 251.94 446.11 252.91 442.66 253.71L432.4 256.43C429 257.43 425.63 258.51 422.25 259.55C408.767 263.898 395.594 269.154 382.82 275.28C369.985 281.51 357.545 288.524 345.57 296.28C356.236 286.552 368.01 278.114 380.65 271.14C393.299 264.077 406.618 258.285 420.41 253.85C423.89 252.85 427.35 251.76 430.83 250.8C434.31 249.84 437.83 248.98 441.38 248.2C444.93 247.42 448.48 246.8 452.04 246.2C455.6 245.6 459.19 245.13 462.77 244.68C477.096 242.918 491.576 242.794 505.93 244.31V244.31Z" fill="white"/>
<path id="Vector_59" d="M407.29 474.84H286.65C281.09 474.84 275.53 474.76 269.97 474.84H269.73C264.5 474.84 259.49 479.44 259.73 484.84C259.821 490.325 264.245 494.749 269.73 494.84H390.37C395.92 494.84 401.49 494.92 407.05 494.84H407.29C412.52 494.84 417.53 490.24 417.29 484.84C417.194 479.357 412.773 474.936 407.29 474.84Z" fill="#592D3D"/>
<path id="Vector_60" d="M726.32 474.84H605.68C600.12 474.84 594.56 474.76 589 474.84H588.76C583.53 474.84 578.52 479.44 578.76 484.84C578.851 490.325 583.275 494.749 588.76 494.84H709.4C714.96 494.84 720.52 494.92 726.08 494.84H726.32C731.55 494.84 736.56 490.24 736.32 484.84C736.224 479.357 731.803 474.936 726.32 474.84Z" fill="#592D3D"/>
<g id="Group_4">
<path id="Vector_61" d="M491.44 204.62C517.662 204.62 538.92 183.362 538.92 157.14C538.92 130.918 517.662 109.66 491.44 109.66C465.218 109.66 443.96 130.918 443.96 157.14C443.96 183.362 465.218 204.62 491.44 204.62Z" fill="#633749"/>
<path id="Vector_62" d="M491.44 204.62C505.76 204.626 519.318 198.168 528.336 187.044C537.354 175.92 540.868 161.319 537.9 147.31C507.12 142.54 475.2 145.31 444.13 153.31C444.03 154.57 443.96 155.84 443.96 157.13C443.957 169.724 448.959 181.804 457.863 190.71C466.768 199.616 478.846 204.62 491.44 204.62V204.62Z" fill="#5E3244"/>
<path id="Vector_63" d="M491.44 204.62C517.662 204.62 538.92 183.362 538.92 157.14C538.92 130.918 517.662 109.66 491.44 109.66C465.218 109.66 443.96 130.918 443.96 157.14C443.96 183.362 465.218 204.62 491.44 204.62Z" stroke="#592D3D" stroke-width="12" stroke-miterlimit="10"/>
<path id="Vector_64" d="M240.26 423.13C240.248 403.777 242.442 384.486 246.8 365.63C247.66 361.93 248.597 358.263 249.61 354.63C252.51 322.33 269.61 295.69 292.47 271.9C297.23 268.09 298.18 259.53 302.94 254.77C319.12 240.5 333.39 226.22 351.47 214.77C425.69 167.19 523.7 141.5 602.68 185.27C618.85 193.83 636.93 198.59 650.25 210.01C675.95 231.89 694.02 257.59 719.72 278.52C742.55 297.52 746.36 328 754.46 354.59C755.48 358.217 756.417 361.883 757.27 365.59C761.628 384.446 763.822 403.737 763.81 423.09L240.26 423.13Z" fill="#633749"/>
<path id="Vector_65" d="M246.8 365.63C242.442 384.486 240.248 403.777 240.26 423.13H323.26C321.7 342.47 301 275.11 406 193C330.68 221.59 262.05 284.38 246.8 365.63Z" fill="#5E3244"/>
<path id="Vector_66" d="M258.18 321.12C253.565 331.765 250.672 343.076 249.61 354.63C248.597 358.257 247.66 361.923 246.8 365.63C242.442 384.486 240.248 403.777 240.26 423.13H440.31C482.777 419.845 525.433 419.845 567.9 423.13H763.81C763.822 403.777 761.628 384.486 757.27 365.63C756.41 361.93 755.473 358.263 754.46 354.63C751 343.26 748.31 331.19 744.6 319.63C582.71 259.73 419 261 258.18 321.12Z" fill="#5E3244"/>
<path id="Vector_67" d="M240.26 423.13C240.248 403.777 242.442 384.486 246.8 365.63C247.66 361.93 248.597 358.263 249.61 354.63C252.51 322.33 269.61 295.69 292.47 271.9C297.23 268.09 298.18 259.53 302.94 254.77C319.12 240.5 333.39 226.22 351.47 214.77C425.69 167.19 523.7 141.5 602.68 185.27C618.85 193.83 636.93 198.59 650.25 210.01C675.95 231.89 694.02 257.59 719.72 278.52C742.55 297.52 746.36 328 754.46 354.59C755.48 358.217 756.417 361.883 757.27 365.59C761.628 384.446 763.822 403.737 763.81 423.09L240.26 423.13Z" stroke="#592D3D" stroke-width="12" stroke-miterlimit="10"/>
<path id="Vector_68" d="M225.35 356.43C408.77 278.43 596.49 277.37 781.29 356.43C798.82 363.93 798.72 496.3 781.29 490.24C600.82 427.41 409.96 426.74 225.35 490.24C203.39 497.79 205.53 364.86 225.35 356.43V356.43Z" fill="#633749"/>
<path id="Vector_69" d="M751.33 443.71C752.158 446.947 752.611 450.269 752.68 453.61C752.77 456.88 752.57 460.13 752.42 463.39L752.06 468.26C751.9 469.88 751.74 471.5 751.54 473.11C751.14 476.34 750.65 479.55 749.95 482.72L742.08 481.31C742.52 478.14 743.08 475 743.72 471.86L744.72 467.15L745.72 462.45C746.46 459.32 747.09 456.18 747.94 453.05C748.78 449.839 749.915 446.712 751.33 443.71V443.71Z" fill="#592D3D"/>
<path id="Vector_70" d="M749.91 342.47C751.469 348.732 752.681 355.075 753.54 361.47C753.97 364.66 754.32 367.86 754.63 371.06C754.94 374.26 755.12 377.48 755.29 380.69C755.55 387.11 755.66 393.53 755.35 399.94C755.072 406.368 754.253 412.76 752.9 419.05C751.9 412.66 751.23 406.35 750.58 400.05C749.93 393.75 749.37 387.5 748.53 381.27C748.14 378.15 747.7 375.05 747.23 371.95C746.76 368.85 746.23 365.76 745.71 362.68C744.64 356.51 743.41 350.39 742.12 344.27L749.91 342.47Z" fill="#592D3D"/>
<path id="Vector_71" d="M668.78 322C676.34 364.87 675.49 411.49 668.78 460.73" stroke="#592D3D" stroke-width="8" stroke-miterlimit="10"/>
<path id="Vector_72" d="M598.19 307.61C603.34 350.51 602.76 397.16 598.19 446.44" stroke="#592D3D" stroke-width="8" stroke-miterlimit="10"/>
<path id="Vector_73" d="M533.85 356.47C535.055 363.309 535.846 370.215 536.22 377.15C536.62 384.05 536.74 390.95 536.87 397.86V408.22C536.87 411.67 536.87 415.12 536.75 418.57C536.6 425.47 536.35 432.37 535.88 439.26L527.88 438.86C528.1 431.99 528.45 425.13 528.82 418.27L530.03 397.7C530.49 390.84 530.85 383.97 531.38 377.1C531.91 370.23 532.69 363.36 533.85 356.47V356.47Z" fill="#592D3D"/>
<path id="Vector_74" d="M535.93 299.88C536.138 301.99 536.232 304.11 536.21 306.23C536.21 307.29 536.16 308.35 536.13 309.41L536 312.6C535.83 314.72 535.68 316.85 535.32 318.98C534.954 321.209 534.252 323.37 533.24 325.39C532.042 323.463 531.133 321.37 530.54 319.18C529.97 317.1 529.61 315.02 529.23 312.93L528.74 309.81C528.61 308.76 528.46 307.72 528.35 306.68C528.113 304.592 527.996 302.492 528 300.39L535.93 299.88Z" fill="#592D3D"/>
<path id="Vector_75" d="M467.76 299.65C468.11 342.65 468.07 389.32 467.76 438.65" stroke="#592D3D" stroke-width="8" stroke-miterlimit="10"/>
<path id="Vector_76" d="M403.38 306.18C401.32 349.18 401.55 395.91 403.38 445.29" stroke="#592D3D" stroke-width="8" stroke-miterlimit="10"/>
<path id="Vector_77" d="M333.37 391.65C334.568 397.192 335.472 402.793 336.08 408.43C336.71 414.02 337.17 419.6 337.73 425.18L339.24 441.91C339.71 447.48 340.17 453.06 340.49 458.65L332.49 459.29C331.91 453.68 331.56 448.05 331.31 442.42C331.18 439.6 331.11 436.78 331.03 433.96L330.93 425.5C330.93 419.86 330.98 414.21 331.28 408.57C331.566 402.887 332.265 397.232 333.37 391.65V391.65Z" fill="#592D3D"/>
<path id="Vector_78" d="M340.48 320.18C340.23 323.83 339.84 327.46 339.43 331.09L338.77 336.54L338.05 341.99C337.51 345.63 337.1 349.27 336.45 352.92C335.823 356.632 334.887 360.285 333.65 363.84C332.607 360.204 331.937 356.472 331.65 352.7C331.35 348.98 331.33 345.28 331.27 341.56V336C331.33 334.14 331.38 332.29 331.47 330.44C331.67 326.73 331.96 323.03 332.47 319.35L340.48 320.18Z" fill="#592D3D"/>
<path id="Vector_79" d="M264.86 340.45C258 383.45 258.77 430.3 264.86 479.75" stroke="#592D3D" stroke-width="8" stroke-miterlimit="10"/>
<path id="Vector_80" d="M753.07 434.58C755.141 434.58 756.82 432.901 756.82 430.83C756.82 428.759 755.141 427.08 753.07 427.08C750.999 427.08 749.32 428.759 749.32 430.83C749.347 432.89 751.01 434.553 753.07 434.58Z" fill="#592D3D"/>
<path id="Vector_81" d="M758.28 341.38C768.28 384.22 767.13 430.81 758.28 480.02" stroke="#5E3244" stroke-width="8" stroke-miterlimit="10"/>
<path id="Vector_82" d="M681 320C688.56 362.87 687.71 409.49 681 458.74" stroke="#5E3244" stroke-width="8" stroke-miterlimit="10"/>
<path id="Vector_83" d="M610.38 305.45C615.53 348.35 614.95 395 610.38 444.28" stroke="#5E3244" stroke-width="8" stroke-miterlimit="10"/>
<path id="Vector_84" d="M544.06 297.82C546.8 340.74 546.5 387.43 544.06 436.74" stroke="#5E3244" stroke-width="8" stroke-miterlimit="10"/>
<path id="Vector_85" d="M479.8 297.16C480.14 340.11 480.11 386.83 479.8 436.16" stroke="#5E3244" stroke-width="8" stroke-miterlimit="10"/>
<path id="Vector_86" d="M415.34 303.53C413.28 346.53 413.51 393.26 415.34 442.64" stroke="#5E3244" stroke-width="8" stroke-miterlimit="10"/>
<path id="Vector_87" d="M348.41 317C343.95 360 344.41 406.79 348.41 456.21" stroke="#5E3244" stroke-width="8" stroke-miterlimit="10"/>
<path id="Vector_88" d="M276.74 337.64C269.88 380.64 270.65 427.49 276.74 476.94" stroke="#5E3244" stroke-width="8" stroke-miterlimit="10"/>
<path id="Vector_89" d="M225.35 356.43C408.77 278.43 596.49 277.37 781.29 356.43C798.82 363.93 798.72 496.3 781.29 490.24C600.82 427.41 409.96 426.74 225.35 490.24C203.39 497.79 205.53 364.86 225.35 356.43V356.43Z" stroke="#592D3D" stroke-width="12" stroke-miterlimit="10"/>
<path id="Vector_90" d="M426.76 283.72C439.505 281.05 452.398 279.14 465.37 278C468.62 277.72 471.86 277.44 475.11 277.22L484.86 276.66C488.12 276.52 491.37 276.46 494.63 276.36L504.4 276.23C517.4 276.23 530.45 276.86 543.4 278.07C556.371 279.227 569.261 281.164 582 283.87C569 283.58 556 283.08 543.12 282.74C530.24 282.4 517.28 282.25 504.37 282.22H494.69C491.46 282.22 488.23 282.34 485 282.33L475.32 282.47C472.09 282.58 468.86 282.63 465.62 282.67C452.72 283 439.78 283.46 426.76 283.72Z" fill="#592D3D"/>
<path id="Vector_91" d="M347.31 233.83C354.382 228.175 361.862 223.051 369.69 218.5C377.47 213.88 385.5 209.66 393.69 205.84C395.69 204.84 397.82 203.98 399.89 203.06C401.96 202.14 404.02 201.2 406.13 200.39C410.35 198.74 414.53 197.01 418.83 195.59C427.352 192.549 436.055 190.044 444.89 188.09C442.82 189 440.73 189.87 438.64 190.72C436.55 191.57 434.45 192.36 432.39 193.28C428.24 195.02 424.08 196.7 419.96 198.5L416.87 199.83C415.87 200.26 414.79 200.68 413.77 201.15L407.62 203.88C405.56 204.76 403.53 205.71 401.48 206.63C399.43 207.55 397.39 208.47 395.38 209.46L389.28 212.29C387.28 213.29 385.28 214.29 383.23 215.29C379.23 217.23 375.23 219.29 371.18 221.29C363.19 225.31 355.23 229.48 347.31 233.83V233.83Z" fill="white"/>
</g>
</g>
</g>
</g>
<defs>
<clipPath id="clip0_0_1">
<rect width="1000" height="990" fill="white"/>
</clipPath>
</defs>
</svg>
